# xmcd
#
# Track frame offsets:
#	150
#	16632
#	37051
#	52604
#	75789
#	93876
#	118364
#	140231
#	159767
#	182637
#	199400
#	224574
#	242523
#	261630
#	281141
#	298716
#	318570
#
# Disc length: 4695 seconds
#
# Revision: 1
# Processed by: cddbd v1.5.2PL0 Copyright (c) Steve Scherf et al.
# Submitted via: audiograbber 1.83.01
#
DISCID=f8125511
DTITLE=The Frog - Be Kind To Animals Kiss A Frog and Document
DYEAR=1982
DGENRE=Soul/Funk/Blues
TTITLE0=Two Together
TTITLE1=Chrissie
TTITLE2=I Can Only Love You
TTITLE3=Cryin'
TTITLE4=I Wonder Why
TTITLE5=We Got Love
TTITLE6=Switch Off (The Key)
TTITLE7=Feels So Sad
TTITLE8=Time Is Killin' You
TTITLE9=Highflyer
TTITLE10=Expect
TTITLE11=Confusion
TTITLE12=Susie
TTITLE13=Keep On Running
TTITLE14=Kick Back
TTITLE15=Say No
TTITLE16=Try
EXTD=
EXTT0=
EXTT1=
EXTT2=
EXTT3=
EXTT4=
EXTT5=
EXTT6=
EXTT7=
EXTT8=
EXTT9=
EXTT10=
EXTT11=
EXTT12=
EXTT13=
EXTT14=
EXTT15=
EXTT16=
PLAYORDER=
